<svg id="Layer_1" xmlns="http://www.w3.org/2000/svg" viewBox="0 0 650.5 201.4" width="650.5" height="201.4">
  <g id="KWphKT">
    <path d="M79.4.2c55.9-3.7,100.7,47.5,89.3,102.2-6.4,30.9-32.2,70-57.8,88.4-18.7,13.5-31.5,14.3-50.5.7C34.2,173,8.6,134.2,1.9,102.8-8.9,52.5,28.1,3.6,79.4.2ZM80.9,24.6c-44.6,3.1-70.8,51.8-48.9,91,22.1,39.7,78.3,41.7,103.8,4.3,28.6-41.9-4.4-98.8-54.9-95.3Z" />
    <path d="M80.9,82.5c12.8-1.5,25.1,5.1,31.8,15.9s5.9,21-4.5,26.8c-10.5,5.8-16.9-5.3-27.4-1.9s-12.9,6.9-21.2-.2c-16.2-13.8,4.7-38.5,21.4-40.5Z" />
    <path d="M67.3,50c9.9-2.2,15.4,18,7.2,20.6s-16.3-18.6-7.2-20.6Z" />
    <path d="M99.8,50.1c6.8-1.4,8.2,5.8,7,11s-7.2,12.9-12.4,8.6c-5.6-4.7-1-18.3,5.4-19.6Z" />
    <path d="M43.4,68c9.2-1.5,18.2,15.1,10,18.5-10.1,4.1-20.7-16.7-10-18.5Z" />
    <path d="M124.8,68c13.4-1.9,4.1,22.2-7.4,18.6-8.4-2.6-.8-17.5,7.4-18.6Z" />
  </g>
  <path d="M223,13.5c9.8,0,16.9,2,21.4,6.1,4.5,4.1,6.7,9.7,6.7,17s-.9,8.3-2.8,12.1c-1.8,3.7-4.9,6.8-9.3,9.1s-10.2,3.5-17.6,3.5h-7.5v27.8h-13.5V13.5h22.5ZM222.1,24.7h-8.1v25.3h6.1c5.5,0,9.7-1,12.7-3,3-2,4.5-5.3,4.5-9.9s-1.2-7.3-3.7-9.3c-2.5-2-6.3-3.1-11.5-3.1Z" />
  <path d="M281.1,30.6c7.4,0,13,1.6,16.9,4.9,3.8,3.2,5.8,8.3,5.8,15v38.5h-9.4l-2.6-7.9h-.4c-2.5,3.1-5.1,5.4-7.8,6.8-2.8,1.4-6.5,2.2-11.2,2.2s-9.4-1.4-12.8-4.3c-3.4-2.9-5.1-7.4-5.1-13.4s2.2-10.4,6.5-13.3c4.3-3,10.9-4.6,19.7-5l9.9-.3v-2.9c0-3.7-.9-6.3-2.6-7.8-1.8-1.6-4.2-2.3-7.4-2.3s-5.7.4-8.3,1.2c-2.6.8-5.3,1.8-7.9,3l-4.2-9.3c2.8-1.5,6-2.7,9.7-3.6,3.6-.9,7.4-1.4,11.4-1.4ZM290.6,61.9l-7,.2c-5.9.2-9.9,1.2-12.2,3-2.3,1.8-3.4,4.2-3.4,7.2s.8,4.7,2.4,5.9c1.6,1.2,3.7,1.7,6.3,1.7,3.9,0,7.2-1.1,9.8-3.3,2.7-2.2,4-5.5,4-9.9v-4.9Z" />
  <path d="M361.1,89l-6.3-24.6c-.4-1.3-.8-2.9-1.3-5-.5-2-1-4.2-1.5-6.3-.5-2.2-1-4.2-1.4-6.1-.4-1.9-.7-3.3-1-4.2h-.4c-.2.9-.5,2.3-1,4.2-.4,1.9-.9,3.9-1.4,6.1-.5,2.2-1,4.3-1.5,6.3-.5,2-.9,3.7-1.3,5.1l-6.7,24.5h-14.6l-16.1-57.4h13.4l7.1,27.4c.5,1.9,1,4,1.4,6.3.5,2.3.9,4.5,1.2,6.7.4,2.1.6,3.8.7,5.2h.4c.1-1.3.4-3,.8-5.2.4-2.2.8-4.3,1.2-6.4.4-2.1.8-3.6,1.1-4.7l8.3-29.3h14.6l7.9,29.3c.3,1.3.7,2.9,1.1,5,.5,2,.9,4.1,1.2,6.1.4,2,.6,3.7.6,5.1h.4c.1-1.2.4-2.8.7-4.9.4-2.1.8-4.3,1.3-6.7.5-2.4,1-4.5,1.6-6.5l7.2-27.4h13.2l-16.3,57.4h-14.8Z" />
  <path d="M438.9,72.4c0,5.8-2.1,10.2-6.2,13.2-4.1,3-10,4.5-17.7,4.5s-7.5-.3-10.3-.8c-2.9-.6-5.6-1.4-8.3-2.6v-11.3c2.8,1.3,5.9,2.5,9.4,3.4,3.4.9,6.6,1.4,9.7,1.4s6.3-.6,7.9-1.7c1.6-1.1,2.4-2.6,2.4-4.5s-.3-2.1-1-3-1.9-1.9-3.7-2.9c-1.8-1.1-4.6-2.4-8.4-3.9-3.7-1.5-6.7-3-9.2-4.4-2.4-1.5-4.3-3.2-5.5-5.3-1.2-2-1.9-4.7-1.9-7.9,0-5.1,2-9,6.1-11.7,4.1-2.6,9.5-4,16.2-4s6.9.4,10,1.1c3.1.7,6.3,1.8,9.5,3.2l-4.2,9.8c-2.7-1.1-5.3-2.1-7.8-2.9-2.5-.8-5.1-1.2-7.8-1.2-5.9,0-8.8,1.7-8.8,5s.4,2.2,1.1,3.1c.7.8,2,1.7,3.9,2.7,1.9,1,4.5,2.1,8,3.4,3.4,1.3,6.3,2.7,8.8,4.2,2.5,1.4,4.4,3.2,5.7,5.3,1.3,2.1,2,4.8,2,8.1Z" />
  <path d="M456.2,9.6c2,0,3.7.5,5.2,1.5,1.5,1,2.2,2.8,2.2,5.4s-.7,4.4-2.2,5.5c-1.5,1.1-3.2,1.6-5.2,1.6s-3.8-.5-5.2-1.6c-1.4-1.1-2.2-2.9-2.2-5.5s.7-4.4,2.2-5.4c1.4-1,3.2-1.5,5.2-1.5ZM462.9,31.7v57.3h-13.3V31.7h13.3Z" />
  <path d="M500,79.4c1.6,0,3.2-.2,4.8-.5,1.6-.3,3-.7,4.4-1.1v9.9c-1.4.7-3.2,1.3-5.5,1.7-2.3.4-4.6.6-7.1.6s-6.3-.5-8.9-1.6c-2.6-1.1-4.7-2.9-6.3-5.6-1.6-2.7-2.3-6.5-2.3-11.3v-29.8h-7.7v-5.8l8.5-4.7,4.2-12.2h8.4v12.6h16.3v10h-16.3v29.7c0,2.7.7,4.7,2.2,6,1.4,1.3,3.3,2,5.4,2Z" />
  <path d="M525.3,9.6c2,0,3.7.5,5.2,1.5,1.5,1,2.2,2.8,2.2,5.4s-.7,4.4-2.2,5.5c-1.5,1.1-3.2,1.6-5.2,1.6s-3.8-.5-5.2-1.6c-1.4-1.1-2.2-2.9-2.2-5.5s.7-4.4,2.2-5.4c1.4-1,3.2-1.5,5.2-1.5ZM532,31.7v57.3h-13.3V31.7h13.3Z" />
  <path d="M560.1,89l-21.8-57.3h14.1l11.4,33.1c.8,2,1.4,4.3,2,6.8.6,2.5.9,4.5,1.1,6.2h.4c.2-1.8.6-3.9,1.3-6.3s1.3-4.6,2-6.7l11.4-33.1h14.1l-21.8,57.3h-14.2Z" />
  <path d="M625.6,30.6c7.7,0,13.8,2.3,18.2,6.9,4.5,4.6,6.7,11,6.7,19.1v6.8h-37.9c.1,5.2,1.6,9.3,4.3,12.1,2.8,2.9,6.6,4.3,11.4,4.3s7-.4,9.9-1.1c3-.7,6-1.8,9.1-3.2v10.7c-2.8,1.3-5.7,2.3-8.8,3-3,.6-6.7,1-10.9,1s-10.6-1.1-14.9-3.2c-4.3-2.2-7.7-5.4-10.1-9.7s-3.6-9.8-3.6-16.3c0-9.8,2.4-17.3,7.2-22.4,4.8-5.1,11.2-7.7,19.2-7.7ZM625.6,40.5c-3.6,0-6.5,1.1-8.7,3.4-2.2,2.3-3.5,5.7-3.9,10.2h24.6c0-3.9-1.1-7.2-3-9.8-1.9-2.6-5-3.9-9-3.9Z" />
  <path d="M213.8,179h-13.3v-75.5h42.8v11.3h-29.5v22.2h27.5v11.3h-27.5v30.7Z" />
  <path d="M304.8,121.7v57.3h-10.5l-1.8-7.4h-.6c-1.8,3-4.4,5.1-7.6,6.5-3.2,1.3-6.7,2-10.3,2-6.4,0-11.4-1.7-15.1-5-3.6-3.3-5.4-8.6-5.4-16v-37.4h13.3v34.8c0,4.3.8,7.5,2.5,9.6,1.7,2.1,4.4,3.2,8,3.2,5.4,0,9-1.7,11.1-5.1s3-8.2,3-14.5v-28h13.3Z" />
  <path d="M342,169.4c1.6,0,3.2-.2,4.8-.5,1.6-.3,3-.7,4.4-1.1v9.9c-1.4.7-3.2,1.3-5.5,1.7-2.3.4-4.6.6-7.1.6s-6.3-.5-8.9-1.6c-2.6-1.1-4.7-2.9-6.3-5.6-1.6-2.7-2.3-6.5-2.3-11.3v-29.8h-7.7v-5.8l8.5-4.7,4.2-12.2h8.4v12.6h16.3v10h-16.3v29.7c0,2.7.7,4.7,2.2,6,1.4,1.3,3.3,2,5.4,2Z" />
  <path d="M411.5,121.7v57.3h-10.5l-1.8-7.4h-.6c-1.8,3-4.4,5.1-7.6,6.5-3.2,1.3-6.7,2-10.3,2-6.4,0-11.4-1.7-15.1-5-3.6-3.3-5.4-8.6-5.4-16v-37.4h13.3v34.8c0,4.3.8,7.5,2.5,9.6,1.7,2.1,4.4,3.2,8,3.2,5.4,0,9-1.7,11.1-5.1s3-8.2,3-14.5v-28h13.3Z" />
  <path d="M456.4,120.6c.9,0,1.9,0,3.1.2,1.1.1,2,.2,2.8.4l-1.2,12.4c-.7-.1-1.6-.3-2.6-.4-1-.1-1.9-.2-2.6-.2-2.8,0-5.5.6-7.9,1.7-2.5,1.2-4.5,2.9-6,5.3-1.5,2.4-2.3,5.5-2.3,9.2v29.7h-13.3v-57.3h10.3l1.9,9.9h.6c1.7-3,4-5.6,7-7.8,3-2.2,6.4-3.2,10.3-3.2Z" />
  <path d="M491.7,120.6c7.7,0,13.8,2.3,18.2,6.9,4.5,4.6,6.7,11,6.7,19.1v6.8h-37.9c.1,5.2,1.6,9.3,4.3,12.1,2.8,2.9,6.6,4.3,11.4,4.3s7-.4,9.9-1.1c3-.7,6-1.8,9.1-3.2v10.7c-2.8,1.3-5.7,2.3-8.8,3-3,.6-6.7,1-10.9,1s-10.6-1.1-14.9-3.2c-4.3-2.2-7.7-5.4-10.1-9.7s-3.6-9.8-3.6-16.3c0-9.8,2.4-17.3,7.2-22.4,4.8-5.1,11.2-7.7,19.2-7.7ZM491.7,130.5c-3.6,0-6.5,1.1-8.7,3.4-2.2,2.3-3.5,5.7-3.9,10.2h24.6c0-3.9-1.1-7.2-3-9.8-1.9-2.6-5-3.9-9-3.9Z" />
  <path d="M567,162.4c0,5.8-2.1,10.2-6.2,13.2-4.1,3-10,4.5-17.7,4.5s-7.5-.3-10.3-.8c-2.9-.6-5.6-1.4-8.3-2.6v-11.3c2.8,1.3,5.9,2.5,9.4,3.4,3.4.9,6.6,1.4,9.7,1.4s6.3-.6,7.9-1.7c1.6-1.1,2.4-2.6,2.4-4.5s-.3-2.1-1-3-1.9-1.9-3.7-2.9c-1.8-1.1-4.6-2.4-8.4-3.9-3.7-1.5-6.7-3-9.2-4.4-2.4-1.5-4.3-3.2-5.5-5.3-1.2-2-1.9-4.7-1.9-7.9,0-5.1,2-9,6.1-11.7,4.1-2.6,9.5-4,16.2-4s6.9.4,10,1.1c3.1.7,6.3,1.8,9.5,3.2l-4.2,9.8c-2.7-1.1-5.3-2.1-7.8-2.9-2.5-.8-5.1-1.2-7.8-1.2-5.9,0-8.8,1.7-8.8,5s.4,2.2,1.1,3.1c.7.8,2,1.7,3.9,2.7,1.9,1,4.5,2.1,8,3.4,3.4,1.3,6.3,2.7,8.8,4.2,2.5,1.4,4.4,3.2,5.7,5.3,1.3,2.1,2,4.8,2,8.1Z" />
</svg>